<svg width="288" height="223" viewBox="0 0 288 223" fill="none" xmlns="http://www.w3.org/2000/svg">
<path d="M131.686 222.261C130.043 222.261 128.384 222.235 126.756 222.184L126.793 221.002C129.131 221.075 131.517 221.095 133.867 221.063L133.883 222.246C133.152 222.256 132.419 222.261 131.686 222.261ZM141.006 221.987L140.937 220.805C143.278 220.667 145.65 220.473 147.986 220.229L148.11 221.405C145.756 221.652 143.366 221.848 141.006 221.987ZM119.639 221.802C117.277 221.621 114.891 221.385 112.546 221.097L112.69 219.922C115.018 220.207 117.385 220.443 119.729 220.622L119.639 221.802ZM155.18 220.501L155.002 219.331C157.329 218.978 159.674 218.569 161.969 218.113L162.2 219.273C159.886 219.732 157.524 220.146 155.18 220.501ZM105.493 220.068C103.16 219.673 100.806 219.219 98.4944 218.717L98.7456 217.56C101.039 218.058 103.376 218.509 105.691 218.901L105.493 220.068ZM169.158 217.724L168.873 216.575C171.157 216.01 173.454 215.386 175.7 214.72L176.036 215.855C173.773 216.526 171.459 217.155 169.158 217.724ZM91.5657 217.045C89.2774 216.437 86.9746 215.767 84.7212 215.055L85.0779 213.927C87.3142 214.634 89.5994 215.298 91.8698 215.901L91.5657 217.045ZM182.821 213.672L182.433 212.554C184.649 211.784 186.878 210.951 189.059 210.078L189.499 211.177C187.301 212.056 185.055 212.895 182.821 213.672H182.821ZM77.9582 212.745C75.7357 211.928 73.4994 211.047 71.3119 210.126L71.7715 209.035C73.9422 209.949 76.1612 210.823 78.3669 211.634L77.9582 212.745ZM196.039 208.384L195.549 207.307C197.677 206.341 199.817 205.308 201.908 204.24L202.447 205.294C200.34 206.371 198.184 207.41 196.039 208.384H196.039ZM208.706 201.912L208.12 200.884C210.161 199.72 212.199 198.496 214.175 197.246L214.808 198.246C212.816 199.505 210.764 200.739 208.706 201.912H208.706ZM220.737 194.303L220.059 193.334C221.981 191.991 223.899 190.585 225.76 189.155L226.482 190.094C224.607 191.535 222.674 192.951 220.737 194.303ZM40.2921 192.637C38.3813 191.249 36.4724 189.796 34.6182 188.316L35.3569 187.391C37.197 188.86 39.0914 190.302 40.9875 191.678L40.2921 192.637ZM232.03 185.627L231.267 184.722C233.058 183.211 234.841 181.636 236.566 180.041L237.37 180.91C235.632 182.517 233.835 184.104 232.03 185.627H232.03ZM29.1484 183.742C27.3687 182.184 25.6006 180.564 23.8936 178.925L24.7133 178.071C26.4076 179.697 28.1621 181.306 29.9282 182.852L29.1484 183.742ZM242.491 175.954L241.648 175.123C243.3 173.45 244.934 171.718 246.503 169.977L247.383 170.769C245.801 172.524 244.156 174.268 242.491 175.954ZM18.8647 173.876C17.2319 172.159 15.6194 170.385 14.0718 168.603L14.9661 167.828C16.5018 169.596 18.102 171.357 19.7226 173.06L18.8647 173.876ZM252.034 165.366L251.119 164.615C252.611 162.8 254.08 160.927 255.487 159.047L256.435 159.756C255.018 161.65 253.537 163.538 252.034 165.366L252.034 165.366ZM9.52489 163.12C8.05861 161.267 6.61481 159.355 5.23347 157.436L6.19422 156.745C7.56515 158.649 8.99794 160.547 10.4533 162.386L9.52489 163.12ZM260.575 153.949L259.596 153.285C260.916 151.341 262.209 149.341 263.439 147.339L264.448 147.958C263.208 149.976 261.905 151.991 260.575 153.949L260.575 153.949ZM1.20715 151.565C-0.0828457 149.588 -1.34538 147.554 -2.54578 145.517L-1.52604 144.916C-0.334599 146.937 0.9184 148.956 2.19857 150.918L1.20715 151.565ZM268.043 141.795L267.007 141.222C268.143 139.166 269.247 137.055 270.29 134.946L271.351 135.471C270.301 137.595 269.188 139.723 268.043 141.795ZM274.365 129L273.281 128.525C274.224 126.371 275.13 124.166 275.974 121.97L277.079 122.394C276.229 124.607 275.316 126.83 274.365 129ZM-12.0857 126.447C-12.9933 124.269 -13.8624 122.041 -14.6688 119.825L-13.556 119.42C-12.756 121.62 -11.8934 123.83 -10.9931 125.991L-12.0857 126.447ZM279.485 115.667L278.361 115.295C279.1 113.07 279.797 110.795 280.433 108.534L281.573 108.854C280.932 111.133 280.229 113.425 279.485 115.667ZM-16.9494 113.074C-17.6538 110.818 -18.3157 108.514 -18.9166 106.225L-17.7714 105.924C-17.1751 108.196 -16.5181 110.483 -15.8192 112.721L-16.9494 113.074ZM283.344 101.952L282.19 101.684C282.72 99.4028 283.205 97.0734 283.631 94.7613L284.795 94.9751C284.366 97.3057 283.878 99.6525 283.344 101.952V101.952ZM-20.5653 99.2924C-21.059 96.9809 -21.5058 94.626 -21.8932 92.292L-20.7254 92.0978C-20.3407 94.4145 -19.8973 96.7515 -19.4074 99.0451L-20.5653 99.2924ZM285.923 87.9405L284.75 87.7799C285.069 85.462 285.337 83.0984 285.549 80.7545L286.729 80.8609C286.515 83.2233 286.244 85.6048 285.923 87.9406V87.9405ZM-22.8985 85.2383C-23.1777 82.8956 -23.4069 80.5095 -23.58 78.1466L-22.399 78.0599C-22.2276 80.4055 -21.9998 82.7731 -21.7226 85.0985L-22.8985 85.2383ZM287.211 73.753L286.028 73.6998C286.133 71.3548 286.187 68.9762 286.187 66.6306H287.371C287.371 68.9941 287.317 71.3906 287.211 73.753ZM-23.9387 71.03C-23.9792 69.5789 -23.9997 68.0984 -24 66.6306C-24 65.7198 -23.9922 64.8108 -23.9766 63.9035L-22.7927 63.9243C-22.8083 64.8247 -22.8161 65.7268 -22.8161 66.6306C-22.8158 68.0874 -22.7953 69.557 -22.7554 70.9976L-23.9387 71.03ZM-22.5117 56.8589L-23.6933 56.7849C-23.5456 54.4202 -23.3416 52.0318 -23.0875 49.6859L-21.9105 49.8133C-22.1628 52.1416 -22.3649 54.5118 -22.5117 56.8589H-22.5117ZM285.423 49.6386C285.186 47.3054 284.861 46.1678 284.518 43.8447L285.689 43.6719C286.035 46.0126 286.331 47.7994 286.57 50.1502L285.423 49.6386ZM-20.9888 42.803L-22.1588 42.6222C-21.7961 40.2809 -21.3746 37.9211 -20.9061 35.6076L-19.7459 35.8422C-20.2107 38.1381 -20.6289 40.48 -20.9888 42.803ZM283.323 36.8763C282.871 34.5676 282.362 32.2437 281.808 29.9691L282.958 29.6895C283.516 31.9813 284.03 34.3232 284.485 36.6492L283.323 36.8763ZM-18.1845 28.946L-19.3328 28.6582C-18.7579 26.3661 -18.1212 24.0548 -17.4402 21.7884L-16.3066 22.1287C-16.9821 24.3778 -17.6139 26.6715 -18.1845 28.946ZM279.977 23.1389C279.317 20.8854 278.595 18.6187 277.833 16.4008L278.952 16.0159C279.721 18.2509 280.448 20.5355 281.113 22.806L279.977 23.1389ZM-14.109 15.3869L-15.2258 14.9945C-14.439 12.7572 -13.5896 10.5092 -12.701 8.31302L-11.6033 8.75683C-12.4851 10.936 -13.3283 13.1669 -14.109 15.3869ZM275.379 9.76842C274.516 7.59038 273.591 5.40453 272.63 3.27128L273.71 2.78528C274.678 4.93501 275.61 7.13761 276.48 9.33211L275.379 9.76842ZM-8.79519 2.2516L-9.87102 1.75749C-8.8822 -0.395119 -7.82979 -2.55379 -6.74299 -4.65844L-5.69087 -4.11581C-6.76958 -2.02703 -7.8139 0.115173 -8.79519 2.2516ZM269.585 -3.09525C268.525 -5.18459 267.403 -7.27824 266.248 -9.3173L267.279 -9.90039C268.442 -7.84544 269.573 -5.73588 270.641 -3.63036L269.585 -3.09525ZM-2.29722 -10.3321L-3.32332 -10.9226C-2.14229 -12.9727 -0.896811 -15.0247 0.378738 -17.0213L1.37651 -16.3845C0.110798 -14.403 -1.12544 -12.3665 -2.29722 -10.3321ZM262.63 -15.3828C261.379 -17.3736 260.069 -19.3568 258.736 -21.2777L259.708 -21.9521C261.051 -20.0165 262.372 -18.0182 263.632 -16.0121L262.63 -15.3828ZM5.32311 -22.261L4.35539 -22.9429C5.72025 -24.8779 7.14726 -26.8066 8.59768 -28.6755L9.53302 -27.9503C8.09388 -26.0952 6.67728 -24.1813 5.32311 -22.261ZM254.576 -26.9904C253.149 -28.8584 251.664 -30.7154 250.159 -32.5097L251.067 -33.2699C252.582 -31.4618 254.08 -29.5909 255.517 -27.7087L254.576 -26.9904ZM13.9973 -33.4398L13.0961 -34.2073C14.6277 -36.0056 16.2241 -37.7956 17.8407 -39.5275L18.7061 -38.7202C17.1019 -37.0013 15.5177 -35.2246 13.9973 -33.4398ZM245.495 -37.8236C243.905 -39.5541 242.255 -41.2693 240.592 -42.9208L241.427 -43.7605C243.102 -42.0959 244.764 -40.368 246.367 -38.6246L245.495 -37.8236ZM23.649 -43.779L22.8212 -44.625C24.5141 -46.2807 26.266 -47.9175 28.0277 -49.4899L28.8162 -48.6069C27.0678 -47.0466 25.3292 -45.4222 23.649 -43.779ZM235.463 -47.791C233.72 -49.3712 231.92 -50.9297 230.115 -52.4233L230.869 -53.3352C232.689 -51.8303 234.502 -50.26 236.258 -48.6676L235.463 -47.791ZM34.1968 -53.1947L33.4493 -54.1124C35.2804 -55.603 37.1727 -57.0732 39.0741 -58.4821L39.7794 -57.5315C37.8922 -56.133 36.014 -54.6741 34.1968 -53.1947ZM45.5518 -61.6078L44.8911 -62.5897C46.8508 -63.9078 48.8683 -65.1985 50.8879 -66.4268L51.5029 -65.4155C49.499 -64.1968 47.4968 -62.9156 45.5518 -61.6078ZM57.6205 -68.9464L57.0523 -69.9848C59.1256 -71.1189 61.2515 -72.2192 63.3707 -73.2556L63.891 -72.1923C61.788 -71.164 59.6782 -70.0721 57.6205 -68.9464ZM200.502 -71.6884C198.395 -72.7376 196.237 -73.7512 194.088 -74.7009L194.567 -75.7833C196.733 -74.8263 198.908 -73.8049 201.03 -72.7477L200.502 -71.6884ZM70.3014 -75.1468L69.8309 -76.2326C71.9975 -77.1714 74.2139 -78.0717 76.4182 -78.9088L76.8385 -77.8021C74.651 -76.9717 72.4516 -76.0783 70.3014 -75.1468ZM187.54 -77.4158C185.348 -78.2656 183.105 -79.0764 180.871 -79.8253L181.248 -80.9476C183.498 -80.1925 185.759 -79.3757 187.968 -78.519L187.54 -77.4158ZM83.5072 -80.1596L83.1384 -81.2841C85.3883 -82.0215 87.6839 -82.7159 89.961 -83.3472L90.2775 -82.207C88.0177 -81.5803 85.7398 -80.8915 83.5072 -80.1596ZM174.115 -81.9192C171.857 -82.5627 169.554 -83.162 167.27 -83.7003L167.541 -84.852C169.843 -84.3097 172.164 -83.7058 174.44 -83.0577L174.115 -81.9192ZM97.1353 -83.9404L96.8717 -85.0941C99.1783 -85.6209 101.528 -86.1008 103.855 -86.5203L104.065 -85.3559C101.756 -84.9393 99.4243 -84.4631 97.1353 -83.9404ZM160.349 -85.1635C158.044 -85.596 155.696 -85.9809 153.37 -86.3074L153.534 -87.4793C155.878 -87.1502 158.245 -86.7625 160.568 -86.3268L160.349 -85.1635ZM111.054 -86.4513L110.897 -87.6244C113.241 -87.937 115.624 -88.1999 117.981 -88.4051L118.084 -87.2262C115.745 -87.0222 113.38 -86.7616 111.054 -86.4513ZM146.344 -87.1303C144.012 -87.3499 141.638 -87.5192 139.288 -87.6328L139.346 -88.8151C141.714 -88.7004 144.105 -88.5299 146.455 -88.3085L146.344 -87.1303ZM125.143 -87.6801L125.094 -88.8625C127.269 -88.9532 129.487 -88.9994 131.685 -89L132.221 -88.9991L132.218 -87.8156L131.685 -87.8165C129.504 -87.816 127.302 -87.77 125.143 -87.6802V-87.6801Z" fill="#3F3D56"/>
</svg>
