<svg width="175" height="278" viewBox="0 0 175 278" fill="none" xmlns="http://www.w3.org/2000/svg">
<path d="M155.686 277.261C154.043 277.261 152.384 277.235 150.756 277.184L150.793 276.002C153.131 276.075 155.517 276.095 157.867 276.063L157.883 277.246C157.152 277.256 156.419 277.261 155.686 277.261ZM165.006 276.987L164.937 275.805C167.278 275.667 169.65 275.473 171.986 275.229L172.11 276.405C169.756 276.652 167.366 276.848 165.006 276.987ZM143.639 276.802C141.277 276.621 138.891 276.385 136.546 276.097L136.69 274.922C139.018 275.207 141.385 275.443 143.729 275.622L143.639 276.802ZM179.18 275.501L179.002 274.331C181.329 273.978 183.674 273.569 185.969 273.113L186.2 274.273C183.886 274.732 181.524 275.146 179.18 275.501ZM129.493 275.068C127.16 274.673 124.806 274.219 122.494 273.717L122.746 272.56C125.039 273.058 127.376 273.509 129.691 273.901L129.493 275.068ZM193.158 272.724L192.873 271.575C195.157 271.01 197.454 270.386 199.7 269.72L200.036 270.855C197.773 271.526 195.459 272.155 193.158 272.724ZM115.566 272.045C113.277 271.437 110.975 270.767 108.721 270.055L109.078 268.927C111.314 269.634 113.599 270.298 115.87 270.901L115.566 272.045ZM206.821 268.672L206.433 267.554C208.649 266.784 210.878 265.951 213.059 265.078L213.499 266.177C211.301 267.056 209.055 267.895 206.821 268.672H206.821ZM101.958 267.745C99.7357 266.928 97.4994 266.047 95.3119 265.126L95.7715 264.035C97.9422 264.949 100.161 265.823 102.367 266.634L101.958 267.745ZM220.039 263.384L219.549 262.307C221.677 261.341 223.817 260.308 225.908 259.24L226.447 260.294C224.34 261.371 222.184 262.41 220.039 263.384H220.039ZM232.706 256.912L232.12 255.884C234.161 254.72 236.199 253.496 238.175 252.246L238.808 253.246C236.816 254.505 234.764 255.739 232.706 256.912H232.706ZM244.737 249.303L244.059 248.334C245.981 246.991 247.899 245.585 249.76 244.155L250.482 245.094C248.607 246.535 246.674 247.951 244.737 249.303ZM64.2921 247.637C62.3813 246.249 60.4724 244.796 58.6182 243.316L59.3569 242.391C61.197 243.86 63.0914 245.302 64.9875 246.678L64.2921 247.637ZM256.03 240.627L255.267 239.722C257.058 238.211 258.841 236.636 260.566 235.041L261.37 235.91C259.632 237.517 257.835 239.104 256.03 240.627H256.03ZM53.1484 238.742C51.3687 237.184 49.6006 235.564 47.8936 233.925L48.7133 233.071C50.4076 234.697 52.1621 236.306 53.9282 237.852L53.1484 238.742ZM266.491 230.954L265.648 230.123C267.3 228.45 268.934 226.718 270.503 224.977L271.383 225.769C269.801 227.524 268.156 229.268 266.491 230.954ZM42.8647 228.876C41.2319 227.159 39.6194 225.385 38.0718 223.603L38.9661 222.828C40.5018 224.596 42.102 226.357 43.7226 228.06L42.8647 228.876ZM276.034 220.366L275.119 219.615C276.611 217.8 278.08 215.927 279.487 214.047L280.435 214.756C279.018 216.65 277.537 218.538 276.034 220.366L276.034 220.366ZM33.5249 218.12C32.0586 216.267 30.6148 214.355 29.2335 212.436L30.1942 211.745C31.5652 213.649 32.9979 215.547 34.4533 217.386L33.5249 218.12ZM284.575 208.949L283.596 208.285C284.916 206.341 286.209 204.341 287.439 202.339L288.448 202.958C287.208 204.976 285.905 206.991 284.575 208.949L284.575 208.949ZM25.2072 206.565C23.9172 204.588 22.6546 202.554 21.4542 200.517L22.474 199.916C23.6654 201.937 24.9184 203.956 26.1986 205.918L25.2072 206.565ZM292.043 196.795L291.007 196.222C292.143 194.166 293.247 192.055 294.29 189.946L295.351 190.471C294.301 192.595 293.188 194.723 292.043 196.795ZM298.365 184L297.281 183.525C298.224 181.371 299.13 179.166 299.974 176.97L301.079 177.394C300.229 179.607 299.316 181.83 298.365 184ZM11.9143 181.447C11.0067 179.269 10.1376 177.041 9.33116 174.825L10.444 174.42C11.244 176.62 12.1066 178.83 13.0069 180.991L11.9143 181.447ZM303.485 170.667L302.361 170.295C303.1 168.07 303.797 165.795 304.433 163.534L305.573 163.854C304.932 166.133 304.229 168.425 303.485 170.667ZM7.05061 168.074C6.34621 165.818 5.6843 163.514 5.08338 161.225L6.22857 160.924C6.82487 163.196 7.48186 165.483 8.18077 167.721L7.05061 168.074ZM307.344 156.952L306.19 156.684C306.72 154.403 307.205 152.073 307.631 149.761L308.795 149.975C308.366 152.306 307.878 154.652 307.344 156.952V156.952ZM3.43471 154.292C2.94101 151.981 2.49416 149.626 2.10684 147.292L3.27458 147.098C3.65929 149.415 4.10268 151.751 4.59261 154.045L3.43471 154.292ZM309.923 142.941L308.75 142.78C309.069 140.462 309.337 138.098 309.549 135.755L310.729 135.861C310.515 138.223 310.244 140.605 309.923 142.941V142.941ZM1.10155 140.238C0.822332 137.896 0.593121 135.51 0.419984 133.147L1.60101 133.06C1.77242 135.406 2.00019 137.773 2.27738 140.098L1.10155 140.238ZM311.211 128.753L310.028 128.7C310.133 126.355 310.187 123.976 310.187 121.631H311.371C311.371 123.994 311.317 126.391 311.211 128.753ZM0.0612816 126.03C0.0208152 124.579 0.000307819 123.098 0 121.631C0 120.72 0.00780447 119.811 0.0234125 118.904L1.20733 118.924C1.19172 119.825 1.18392 120.727 1.18392 121.631C1.18421 123.087 1.20473 124.557 1.24462 125.998L0.0612816 126.03ZM1.48828 111.859L0.306679 111.785C0.454379 109.42 0.658445 107.032 0.912509 104.686L2.0895 104.813C1.83716 107.142 1.6351 109.512 1.48826 111.859H1.48828ZM309.423 104.639C309.186 102.305 308.861 101.168 308.518 98.8447L309.689 98.6719C310.035 101.013 310.331 102.799 310.57 105.15L309.423 104.639ZM3.01123 97.803L1.84119 97.6222C2.20393 95.2809 2.62536 92.9211 3.0939 90.6076L4.25414 90.8422C3.78934 93.1381 3.37109 95.48 3.01123 97.803ZM307.323 91.8763C306.871 89.5676 306.362 87.2437 305.808 84.9691L306.958 84.6895C307.516 86.9813 308.03 89.3232 308.485 91.6492L307.323 91.8763ZM5.81553 83.946L4.66716 83.6582C5.24207 81.3661 5.87883 79.0548 6.55981 76.7884L7.69342 77.1287C7.01795 79.3778 6.3861 81.6715 5.81553 83.946ZM303.977 78.1389C303.317 75.8854 302.595 73.6187 301.833 71.4008L302.952 71.0159C303.721 73.2509 304.448 75.5355 305.113 77.806L303.977 78.1389ZM9.89103 70.3869L8.77418 69.9945C9.56095 67.7572 10.4104 65.5092 11.299 63.313L12.3967 63.7568C11.5149 65.936 10.6717 68.1669 9.89103 70.3869ZM299.379 64.7684C298.516 62.5904 297.591 60.4045 296.63 58.2713L297.71 57.7853C298.678 59.935 299.61 62.1376 300.48 64.3321L299.379 64.7684ZM15.2048 57.2516L14.129 56.7575C15.1178 54.6049 16.1702 52.4462 17.257 50.3416L18.3091 50.8842C17.2304 52.973 16.1861 55.1152 15.2048 57.2516ZM293.585 51.9047C292.525 49.8154 291.403 47.7218 290.248 45.6827L291.279 45.0996C292.442 47.1546 293.573 49.2641 294.641 51.3696L293.585 51.9047ZM21.7028 44.6679L20.6767 44.0774C21.8577 42.0273 23.1032 39.9753 24.3787 37.9787L25.3765 38.6155C24.1108 40.597 22.8746 42.6335 21.7028 44.6679ZM286.63 39.6172C285.379 37.6264 284.069 35.6432 282.736 33.7223L283.708 33.0479C285.051 34.9835 286.372 36.9818 287.632 38.9879L286.63 39.6172ZM29.3231 32.739L28.3554 32.0571C29.7203 30.1221 31.1473 28.1934 32.5977 26.3245L33.533 27.0497C32.0939 28.9048 30.6773 30.8187 29.3231 32.739ZM278.576 28.0096C277.149 26.1416 275.664 24.2846 274.159 22.4903L275.067 21.7301C276.582 23.5382 278.08 25.4091 279.517 27.2913L278.576 28.0096ZM37.9973 21.5602L37.0961 20.7927C38.6277 18.9944 40.2241 17.2044 41.8407 15.4725L42.7061 16.2798C41.1019 17.9987 39.5177 19.7754 37.9973 21.5602ZM269.495 17.1764C267.905 15.4459 266.255 13.7307 264.592 12.0792L265.427 11.2395C267.102 12.9041 268.764 14.632 270.367 16.3754L269.495 17.1764ZM47.649 11.221L46.8212 10.375C48.5141 8.71933 50.266 7.08245 52.0277 5.51006L52.8162 6.39307C51.0678 7.95335 49.3292 9.57777 47.649 11.221ZM259.463 7.20903C257.72 5.62881 255.92 4.07026 254.115 2.57672L254.869 1.66484C256.689 3.16966 258.502 4.74004 260.258 6.33239L259.463 7.20903ZM58.1968 1.80526L57.4493 0.887581C59.2804 -0.603043 61.1727 -2.0732 63.0741 -3.48207L63.7794 -2.53146C61.8922 -1.13298 60.014 0.325882 58.1968 1.80526ZM69.5518 -6.60784L68.8911 -7.58966C70.8508 -8.90781 72.8683 -10.1985 74.8879 -11.4268L75.5029 -10.4155C73.499 -9.19675 71.4968 -7.91559 69.5518 -6.60784ZM81.6205 -13.9464L81.0523 -14.9848C83.1256 -16.1189 85.2515 -17.2192 87.3707 -18.2556L87.891 -17.1923C85.788 -16.164 83.6782 -15.0721 81.6205 -13.9464ZM224.502 -16.6884C222.395 -17.7376 220.237 -18.7512 218.088 -19.7009L218.567 -20.7833C220.733 -19.8263 222.908 -18.8049 225.03 -17.7477L224.502 -16.6884ZM94.3014 -20.1468L93.8309 -21.2326C95.9975 -22.1714 98.2139 -23.0717 100.418 -23.9088L100.838 -22.8021C98.651 -21.9717 96.4516 -21.0783 94.3014 -20.1468ZM211.54 -22.4158C209.348 -23.2656 207.105 -24.0764 204.871 -24.8253L205.248 -25.9476C207.498 -25.1925 209.759 -24.3757 211.968 -23.519L211.54 -22.4158ZM107.507 -25.1596L107.138 -26.2841C109.388 -27.0215 111.684 -27.7159 113.961 -28.3472L114.278 -27.207C112.018 -26.5803 109.74 -25.8915 107.507 -25.1596ZM198.115 -26.9192C195.857 -27.5627 193.554 -28.162 191.27 -28.7003L191.541 -29.852C193.843 -29.3097 196.164 -28.7058 198.44 -28.0577L198.115 -26.9192ZM121.135 -28.9404L120.872 -30.0941C123.178 -30.6209 125.528 -31.1008 127.855 -31.5203L128.065 -30.3559C125.756 -29.9393 123.424 -29.4631 121.135 -28.9404ZM184.349 -30.1635C182.044 -30.596 179.696 -30.9809 177.37 -31.3074L177.534 -32.4793C179.878 -32.1502 182.245 -31.7625 184.568 -31.3268L184.349 -30.1635ZM135.054 -31.4513L134.897 -32.6244C137.241 -32.937 139.624 -33.1999 141.981 -33.4051L142.084 -32.2262C139.745 -32.0222 137.38 -31.7616 135.054 -31.4513ZM170.344 -32.1303C168.012 -32.3499 165.638 -32.5192 163.288 -32.6328L163.346 -33.8151C165.714 -33.7004 168.105 -33.5299 170.455 -33.3085L170.344 -32.1303ZM149.143 -32.6801L149.094 -33.8625C151.269 -33.9532 153.487 -33.9994 155.685 -34L156.221 -33.9991L156.218 -32.8156L155.685 -32.8165C153.504 -32.816 151.302 -32.77 149.143 -32.6802V-32.6801Z" fill="#3F3D56"/>
</svg>
