<svg width="153" height="312" viewBox="0 0 153 312" fill="none" xmlns="http://www.w3.org/2000/svg">
<path d="M-3.31448 311.261C-4.95682 311.261 -6.61595 311.235 -8.24442 311.184L-8.20741 310.002C-5.86906 310.075 -3.4827 310.095 -1.13336 310.063L-1.11722 311.246C-1.8485 311.256 -2.5809 311.261 -3.31448 311.261ZM6.006 310.987L5.93663 309.805C8.27846 309.667 10.6503 309.473 12.9864 309.229L13.1101 310.405C10.7561 310.652 8.36632 310.848 6.006 310.987ZM-15.3613 310.802C-17.7227 310.621 -20.1091 310.385 -22.4544 310.097L-22.3098 308.922C-19.9825 309.207 -17.6146 309.443 -15.271 309.622L-15.3613 310.802ZM20.1795 309.501L20.002 308.331C22.3288 307.978 24.6735 307.569 26.9691 307.113L27.1998 308.273C24.8863 308.732 22.5242 309.146 20.1795 309.501ZM-29.5067 309.068C-31.8396 308.673 -34.1944 308.219 -36.5056 307.717L-36.2544 306.56C-33.9609 307.058 -31.6243 307.509 -29.309 307.901L-29.5067 309.068ZM34.1576 306.724L33.8732 305.575C36.1572 305.01 38.454 304.386 40.6998 303.72L41.0363 304.855C38.7731 305.526 36.459 306.155 34.1576 306.724ZM-43.4343 306.045C-45.7226 305.437 -48.0254 304.767 -50.2788 304.055L-49.9221 302.927C-47.6858 303.634 -45.4006 304.298 -43.1302 304.901L-43.4343 306.045ZM47.8212 302.672L47.4328 301.554C49.6492 300.784 51.8783 299.951 54.0594 299.078L54.4987 300.177C52.3014 301.056 50.055 301.895 47.8213 302.672H47.8212ZM-57.0418 301.745C-59.2643 300.928 -61.5006 300.047 -63.6881 299.126L-63.2285 298.035C-61.0578 298.949 -58.8388 299.823 -56.6331 300.634L-57.0418 301.745ZM61.0392 297.384L60.549 296.307C62.6775 295.341 64.817 294.308 66.9079 293.24L67.4467 294.294C65.3396 295.371 63.1839 296.41 61.0392 297.384H61.0392ZM73.7062 290.912L73.12 289.884C75.1613 288.72 77.199 287.496 79.1755 286.246L79.8079 287.246C77.8164 288.505 75.7636 289.739 73.7062 290.912H73.7062ZM85.7367 283.303L85.0592 282.334C86.9814 280.991 88.8995 279.585 90.7603 278.155L91.4818 279.094C89.607 280.535 87.6739 281.951 85.7367 283.303ZM-94.7079 281.637C-96.6187 280.249 -98.5276 278.796 -100.382 277.316L-99.6431 276.391C-97.803 277.86 -95.9086 279.302 -94.0125 280.678L-94.7079 281.637ZM97.0297 274.627L96.2666 273.722C98.0581 272.211 99.8409 270.636 101.566 269.041L102.37 269.91C100.632 271.517 98.8351 273.104 97.0297 274.627H97.0297ZM-105.852 272.742C-107.631 271.184 -109.399 269.564 -111.106 267.925L-110.287 267.071C-108.592 268.697 -106.838 270.306 -105.072 271.852L-105.852 272.742ZM107.491 264.954L106.648 264.123C108.3 262.45 109.934 260.718 111.503 258.977L112.383 259.769C110.801 261.524 109.156 263.268 107.491 264.954ZM-116.135 262.876C-117.768 261.159 -119.381 259.385 -120.928 257.603L-120.034 256.828C-118.498 258.596 -116.898 260.357 -115.277 262.06L-116.135 262.876ZM117.034 254.366L116.119 253.615C117.611 251.8 119.08 249.927 120.487 248.047L121.435 248.756C120.018 250.65 118.537 252.538 117.034 254.366L117.034 254.366ZM-125.475 252.12C-126.941 250.267 -128.385 248.355 -129.767 246.436L-128.806 245.745C-127.435 247.649 -126.002 249.547 -124.547 251.386L-125.475 252.12ZM125.575 242.949L124.596 242.285C125.916 240.341 127.209 238.341 128.439 236.339L129.448 236.958C128.208 238.976 126.905 240.991 125.575 242.949L125.575 242.949ZM-133.793 240.565C-135.083 238.588 -136.345 236.554 -137.546 234.517L-136.526 233.916C-135.335 235.937 -134.082 237.956 -132.801 239.918L-133.793 240.565ZM133.043 230.795L132.007 230.222C133.143 228.166 134.247 226.055 135.29 223.946L136.351 224.471C135.301 226.595 134.188 228.723 133.043 230.795ZM139.365 218L138.281 217.525C139.224 215.371 140.13 213.166 140.974 210.97L142.079 211.394C141.229 213.607 140.316 215.83 139.365 218ZM-147.086 215.447C-147.993 213.269 -148.862 211.041 -149.669 208.825L-148.556 208.42C-147.756 210.62 -146.893 212.83 -145.993 214.991L-147.086 215.447ZM144.485 204.667L143.361 204.295C144.1 202.07 144.797 199.795 145.433 197.534L146.573 197.854C145.932 200.133 145.229 202.425 144.485 204.667ZM-151.949 202.074C-152.654 199.818 -153.316 197.514 -153.917 195.225L-152.771 194.924C-152.175 197.196 -151.518 199.483 -150.819 201.721L-151.949 202.074ZM148.344 190.952L147.19 190.684C147.72 188.403 148.205 186.073 148.631 183.761L149.795 183.975C149.366 186.306 148.878 188.652 148.344 190.952V190.952ZM-155.565 188.292C-156.059 185.981 -156.506 183.626 -156.893 181.292L-155.725 181.098C-155.341 183.415 -154.897 185.751 -154.407 188.045L-155.565 188.292ZM150.923 176.941L149.75 176.78C150.069 174.462 150.337 172.098 150.549 169.755L151.729 169.861C151.515 172.223 151.244 174.605 150.923 176.941V176.941ZM-157.898 174.238C-158.178 171.896 -158.407 169.51 -158.58 167.147L-157.399 167.06C-157.228 169.406 -157 171.773 -156.723 174.098L-157.898 174.238ZM152.211 162.753L151.028 162.7C151.133 160.355 151.187 157.976 151.187 155.631H152.371C152.371 157.994 152.317 160.391 152.211 162.753ZM-158.939 160.03C-158.979 158.579 -159 157.098 -159 155.631C-159 154.72 -158.992 153.811 -158.977 152.904L-157.793 152.924C-157.808 153.825 -157.816 154.727 -157.816 155.631C-157.816 157.087 -157.795 158.557 -157.755 159.998L-158.939 160.03ZM-157.512 145.859L-158.693 145.785C-158.546 143.42 -158.342 141.032 -158.087 138.686L-156.911 138.813C-157.163 141.142 -157.365 143.512 -157.512 145.859H-157.512ZM150.423 138.639C150.186 136.305 149.861 135.168 149.518 132.845L150.689 132.672C151.035 135.013 151.331 136.799 151.57 139.15L150.423 138.639ZM-155.989 131.803L-157.159 131.622C-156.796 129.281 -156.375 126.921 -155.906 124.608L-154.746 124.842C-155.211 127.138 -155.629 129.48 -155.989 131.803ZM148.323 125.876C147.871 123.568 147.362 121.244 146.808 118.969L147.958 118.689C148.516 120.981 149.03 123.323 149.485 125.649L148.323 125.876ZM-153.184 117.946L-154.333 117.658C-153.758 115.366 -153.121 113.055 -152.44 110.788L-151.307 111.129C-151.982 113.378 -152.614 115.671 -153.184 117.946ZM144.977 112.139C144.317 109.885 143.595 107.619 142.833 105.401L143.952 105.016C144.721 107.251 145.448 109.536 146.113 111.806L144.977 112.139ZM-149.109 104.387L-150.226 103.994C-149.439 101.757 -148.59 99.5092 -147.701 97.313L-146.603 97.7568C-147.485 99.936 -148.328 102.167 -149.109 104.387ZM140.379 98.7684C139.516 96.5904 138.591 94.4045 137.63 92.2713L138.71 91.7853C139.678 93.935 140.61 96.1376 141.48 98.3321L140.379 98.7684ZM-143.795 91.2516L-144.871 90.7575C-143.882 88.6049 -142.83 86.4462 -141.743 84.3416L-140.691 84.8842C-141.77 86.973 -142.814 89.1152 -143.795 91.2516ZM134.585 85.9047C133.525 83.8154 132.403 81.7218 131.248 79.6827L132.279 79.0996C133.442 81.1546 134.573 83.2641 135.641 85.3696L134.585 85.9047ZM-137.297 78.6679L-138.323 78.0774C-137.142 76.0273 -135.897 73.9753 -134.621 71.9787L-133.623 72.6155C-134.889 74.597 -136.125 76.6335 -137.297 78.6679ZM127.63 73.6172C126.379 71.6264 125.069 69.6432 123.736 67.7223L124.708 67.0479C126.051 68.9835 127.372 70.9818 128.632 72.9879L127.63 73.6172ZM-129.677 66.739L-130.645 66.0571C-129.28 64.1221 -127.853 62.1934 -126.402 60.3245L-125.467 61.0497C-126.906 62.9048 -128.323 64.8187 -129.677 66.739ZM119.576 62.0096C118.149 60.1416 116.664 58.2846 115.159 56.4903L116.067 55.7301C117.582 57.5382 119.08 59.4091 120.517 61.2913L119.576 62.0096ZM-121.003 55.5602L-121.904 54.7927C-120.372 52.9944 -118.776 51.2044 -117.159 49.4725L-116.294 50.2798C-117.898 51.9987 -119.482 53.7754 -121.003 55.5602ZM110.495 51.1764C108.905 49.4459 107.255 47.7307 105.592 46.0792L106.427 45.2395C108.102 46.9041 109.764 48.632 111.367 50.3754L110.495 51.1764ZM-111.351 45.221L-112.179 44.375C-110.486 42.7193 -108.734 41.0825 -106.972 39.5101L-106.184 40.3931C-107.932 41.9534 -109.671 43.5778 -111.351 45.221ZM100.463 41.209C98.72 39.6288 96.9204 38.0703 95.1145 36.5767L95.8695 35.6648C97.6887 37.1697 99.5022 38.74 101.258 40.3324L100.463 41.209ZM-100.803 35.8053L-101.551 34.8876C-99.7196 33.397 -97.8273 31.9268 -95.9259 30.5179L-95.2206 31.4685C-97.1078 32.867 -98.986 34.3259 -100.803 35.8053ZM-89.4482 27.3922L-90.1089 26.4103C-88.1492 25.0922 -86.1317 23.8015 -84.1121 22.5732L-83.4971 23.5845C-85.501 24.8032 -87.5032 26.0844 -89.4482 27.3922ZM-77.3795 20.0536L-77.9477 19.0152C-75.8744 17.8811 -73.7485 16.7808 -71.6293 15.7444L-71.109 16.8077C-73.212 17.836 -75.3218 18.9279 -77.3795 20.0536ZM65.502 17.3116C63.3955 16.2624 61.2375 15.2488 59.0881 14.2991L59.5668 13.2167C61.7329 14.1737 63.9076 15.1951 66.0304 16.2523L65.502 17.3116ZM-64.6986 13.8532L-65.1691 12.7674C-63.0025 11.8286 -60.7861 10.9283 -58.5818 10.0912L-58.1615 11.1979C-60.349 12.0283 -62.5484 12.9217 -64.6986 13.8532ZM52.5402 11.5842C50.3481 10.7344 48.1045 9.92363 45.8714 9.1747L46.2483 8.05245C48.4982 8.80745 50.7591 9.62428 52.968 10.481L52.5402 11.5842ZM-51.4928 8.84041L-51.8616 7.71585C-49.6117 6.97847 -47.3161 6.28414 -45.039 5.65281L-44.7225 6.79297C-46.9823 7.41969 -49.2602 8.10852 -51.4928 8.84041ZM39.1147 7.08075C36.8567 6.43728 34.5536 5.83802 32.2696 5.29972L32.5413 4.14801C34.8432 4.69035 37.1637 5.29423 39.4396 5.94233L39.1147 7.08075ZM-37.8647 5.05962L-38.1283 3.90587C-35.8217 3.37913 -33.4721 2.8992 -31.145 2.47966L-30.9346 3.64409C-33.2443 4.06075 -35.5757 4.53692 -37.8647 5.05962ZM25.3493 3.83652C23.0439 3.40398 20.6957 3.01911 18.3695 2.69261L18.5337 1.52067C20.8779 1.84977 23.2445 2.23752 25.5679 2.67325L25.3493 3.83652ZM-23.9464 2.54873L-24.103 1.37563C-21.7595 1.06299 -19.3761 0.800054 -17.0192 0.594912L-16.9163 1.77379C-19.2552 1.97777 -21.6202 2.23839 -23.9464 2.54873ZM11.344 1.86972C9.01204 1.65012 6.63841 1.4808 4.2885 1.36725L4.34631 0.184928C6.71356 0.299639 9.10512 0.470117 11.455 0.691468L11.344 1.86972ZM-9.85672 1.31986L-9.90643 0.13754C-7.73051 0.0468132 -5.51297 0.000579916 -3.31451 0L-2.77864 0.000870209L-2.7821 1.18437L-3.31451 1.1835C-5.4962 1.18405 -7.69757 1.22999 -9.85672 1.31985V1.31986Z" fill="#3F3D56"/>
</svg>
