<svg width="610" height="512" viewBox="0 0 610 512" fill="none" xmlns="http://www.w3.org/2000/svg">
<path d="M162.471 311.261C160.829 311.261 159.17 311.235 157.541 311.184L157.578 310.002C159.916 310.075 162.303 310.095 164.652 310.063L164.668 311.246C163.937 311.256 163.205 311.261 162.471 311.261ZM171.792 310.987L171.722 309.806C174.064 309.667 176.436 309.473 178.772 309.229L178.896 310.405C176.542 310.652 174.152 310.848 171.792 310.987ZM150.424 310.802C148.063 310.621 145.676 310.385 143.331 310.097L143.476 308.923C145.803 309.207 148.171 309.443 150.515 309.622L150.424 310.802ZM185.965 309.501L185.788 308.331C188.114 307.978 190.459 307.569 192.755 307.113L192.985 308.273C190.672 308.732 188.31 309.146 185.965 309.501ZM136.279 309.068C133.946 308.673 131.591 308.219 129.28 307.717L129.531 306.56C131.825 307.058 134.161 307.509 136.477 307.901L136.279 309.068ZM199.943 306.724L199.659 305.575C201.943 305.01 204.24 304.386 206.485 303.72L206.822 304.855C204.559 305.526 202.245 306.155 199.943 306.724ZM122.351 306.045C120.063 305.437 117.76 304.768 115.507 304.055L115.863 302.927C118.1 303.634 120.385 304.298 122.655 304.901L122.351 306.045ZM213.607 302.672L213.218 301.554C215.435 300.784 217.664 299.951 219.845 299.078L220.284 300.177C218.087 301.056 215.841 301.895 213.607 302.672H213.607ZM108.744 301.745C106.521 300.928 104.285 300.047 102.097 299.126L102.557 298.035C104.728 298.949 106.947 299.823 109.152 300.634L108.744 301.745ZM226.825 297.385L226.335 296.307C228.463 295.341 230.603 294.308 232.693 293.24L233.232 294.294C231.125 295.371 228.969 296.41 226.825 297.385H226.825ZM239.492 290.912L238.906 289.884C240.947 288.72 242.985 287.496 244.961 286.246L245.593 287.246C243.602 288.505 241.549 289.739 239.492 290.912H239.492ZM251.522 283.303L250.845 282.334C252.767 280.991 254.685 279.585 256.546 278.155L257.267 279.094C255.393 280.535 253.459 281.951 251.522 283.303ZM71.0777 281.637C69.1668 280.249 67.2579 278.796 65.4037 277.316L66.1425 276.391C67.9825 277.86 69.8769 279.302 71.773 280.679L71.0777 281.637ZM262.815 274.627L262.052 273.722C263.844 272.211 265.626 270.636 267.352 269.041L268.156 269.91C266.417 271.517 264.621 273.104 262.815 274.627H262.815ZM59.9339 272.742C58.1543 271.184 56.3862 269.564 54.6791 267.925L55.4988 267.071C57.1932 268.697 58.9477 270.306 60.7137 271.852L59.9339 272.742ZM273.277 264.954L272.434 264.123C274.086 262.45 275.719 260.719 277.289 258.977L278.169 259.769C276.587 261.524 274.941 263.268 273.277 264.954ZM49.6503 262.876C48.0175 261.159 46.4049 259.385 44.8574 257.603L45.7517 256.828C47.2873 258.597 48.8875 260.357 50.5082 262.06L49.6503 262.876ZM282.819 254.366L281.905 253.615C283.397 251.8 284.866 249.927 286.272 248.047L287.22 248.756C285.803 250.65 284.323 252.538 282.819 254.366L282.819 254.366ZM40.3104 252.12C38.8442 250.267 37.4004 248.355 36.019 246.436L36.9798 245.745C38.3507 247.649 39.7835 249.547 41.2388 251.386L40.3104 252.12ZM291.361 242.949L290.381 242.285C291.702 240.341 292.995 238.341 294.224 236.339L295.234 236.958C293.994 238.976 292.691 240.991 291.361 242.949L291.361 242.949ZM31.9927 240.565C30.7027 238.588 29.4402 236.554 28.2398 234.517L29.2595 233.916C30.4509 235.937 31.7039 237.956 32.9841 239.918L31.9927 240.565ZM298.828 230.795L297.792 230.222C298.929 228.166 300.033 226.055 301.075 223.946L302.137 224.471C301.087 226.595 299.973 228.723 298.828 230.795ZM305.151 218L304.066 217.525C305.01 215.371 305.916 213.166 306.759 210.97L307.864 211.394C307.015 213.607 306.101 215.83 305.151 218ZM18.6999 215.447C17.7923 213.269 16.9231 211.041 16.1167 208.825L17.2295 208.42C18.0296 210.62 18.8921 212.831 19.7925 214.991L18.6999 215.447ZM310.27 204.667L309.147 204.295C309.885 202.07 310.582 199.795 311.218 197.534L312.358 197.854C311.717 200.133 311.014 202.425 310.27 204.667ZM13.8362 202.074C13.1318 199.818 12.4698 197.514 11.8689 195.225L13.0141 194.924C13.6104 197.196 14.2674 199.483 14.9663 201.721L13.8362 202.074ZM314.129 190.952L312.976 190.684C313.506 188.403 313.99 186.073 314.416 183.761L315.581 183.975C315.152 186.306 314.663 188.653 314.129 190.952V190.952ZM10.2203 188.292C9.72656 185.981 9.2797 183.626 8.89238 181.292L10.0601 181.098C10.4448 183.415 10.8882 185.752 11.3782 188.045L10.2203 188.292ZM316.709 176.941L315.536 176.78C315.854 174.462 316.123 172.098 316.335 169.755L317.514 169.861C317.3 172.223 317.029 174.605 316.709 176.941V176.941ZM7.88709 174.238C7.60788 171.896 7.37867 169.51 7.20553 167.147L8.38656 167.06C8.55796 169.406 8.78573 171.773 9.06292 174.099L7.88709 174.238ZM317.996 162.753L316.814 162.7C316.919 160.355 316.973 157.976 316.973 155.631H318.157C318.157 157.994 318.103 160.391 317.996 162.753ZM6.84683 160.03C6.80636 158.579 6.78585 157.098 6.78555 155.631C6.78555 154.72 6.79335 153.811 6.80896 152.904L7.99288 152.924C7.97727 153.825 7.96947 154.727 7.96947 155.631C7.96976 157.087 7.99028 158.557 8.03016 159.998L6.84683 160.03ZM8.27383 145.859L7.09222 145.785C7.23992 143.42 7.44399 141.032 7.69805 138.686L8.87504 138.813C8.62271 141.142 8.42065 143.512 8.27381 145.859H8.27383ZM316.208 138.639C315.972 136.305 315.647 135.168 315.303 132.845L316.474 132.672C316.82 135.013 317.117 136.799 317.355 139.15L316.208 138.639ZM9.79678 131.803L8.62673 131.622C8.98948 129.281 9.41091 126.921 9.87944 124.608L11.0397 124.842C10.5749 127.138 10.1566 129.48 9.79678 131.803ZM314.108 125.876C313.657 123.568 313.147 121.244 312.594 118.969L313.744 118.689C314.302 120.981 314.815 123.323 315.27 125.649L314.108 125.876ZM12.6011 117.946L11.4527 117.658C12.0276 115.366 12.6644 113.055 13.3454 110.788L14.479 111.129C13.8035 113.378 13.1716 115.671 12.6011 117.946ZM310.762 112.139C310.102 109.885 309.381 107.619 308.618 105.401L309.737 105.016C310.506 107.251 311.233 109.536 311.899 111.806L310.762 112.139ZM16.6766 104.387L15.5597 103.995C16.3465 101.757 17.196 99.5093 18.0845 97.3131L19.1823 97.7569C18.3004 99.936 17.4573 102.167 16.6766 104.387ZM306.165 98.7685C305.301 96.5904 304.376 94.4046 303.415 92.2713L304.495 91.7853C305.464 93.935 306.395 96.1376 307.265 98.3321L306.165 98.7685ZM21.9904 91.2516L20.9145 90.7575C21.9033 88.6049 22.9558 86.4462 24.0426 84.3416L25.0947 84.8842C24.016 86.973 22.9716 89.1152 21.9904 91.2516ZM300.371 85.9048C299.311 83.8154 298.188 81.7218 297.034 79.6827L298.064 79.0996C299.228 81.1546 300.358 83.2642 301.426 85.3697L300.371 85.9048ZM28.4883 78.668L27.4622 78.0774C28.6433 76.0274 29.8887 73.9753 31.1643 71.9787L32.1621 72.6155C30.8963 74.5971 29.6601 76.6335 28.4883 78.668ZM293.415 73.6173C292.164 71.6265 290.854 69.6432 289.522 67.7223L290.494 67.0479C291.837 68.9835 293.157 70.9818 294.417 72.988L293.415 73.6173ZM36.1087 66.739L35.1409 66.0571C36.5058 64.1221 37.9328 62.1934 39.3832 60.3245L40.3186 61.0498C38.8794 62.9048 37.4628 64.8188 36.1087 66.739ZM285.362 62.0096C283.935 60.1416 282.449 58.2846 280.945 56.4903L281.852 55.7301C283.368 57.5383 284.865 59.4092 286.303 61.2913L285.362 62.0096ZM44.7828 55.5602L43.8816 54.7928C45.4132 52.9944 47.0096 51.2044 48.6262 49.4725L49.4916 50.2798C47.8874 51.9987 46.3032 53.7754 44.7828 55.5602ZM276.281 51.1764C274.69 49.4459 273.04 47.7308 271.378 46.0792L272.213 45.2395C273.888 46.9041 275.55 48.632 277.152 50.3755L276.281 51.1764ZM54.4346 45.221L53.6067 44.375C55.2997 42.7194 57.0516 41.0825 58.8133 39.5101L59.6018 40.3931C57.8534 41.9534 56.1148 43.5778 54.4346 45.221ZM266.248 41.2091C264.506 39.6288 262.706 38.0703 260.9 36.5768L261.655 35.6649C263.474 37.1697 265.288 38.7401 267.044 40.3324L266.248 41.2091ZM64.9823 35.8053L64.2349 34.8876C66.0659 33.397 67.9583 31.9268 69.8597 30.518L70.5649 31.4686C68.6777 32.8671 66.7995 34.3259 64.9823 35.8053ZM76.3374 27.3922L75.6766 26.4104C77.6363 25.0922 79.6539 23.8015 81.6734 22.5732L82.2885 23.5845C80.2845 24.8033 78.2823 26.0844 76.3374 27.3922ZM88.4061 20.0537L87.8378 19.0152C89.9111 17.8811 92.037 16.7808 94.1563 15.7444L94.6766 16.8077C92.5735 17.8361 90.4638 18.928 88.4061 20.0537ZM231.288 17.3116C229.181 16.2624 227.023 15.2489 224.874 14.2991L225.352 13.2167C227.518 14.1737 229.693 15.1951 231.816 16.2524L231.288 17.3116ZM101.087 13.8533L100.616 12.7674C102.783 11.8286 104.999 10.9283 107.204 10.0912L107.624 11.1979C105.437 12.0283 103.237 12.9217 101.087 13.8533ZM218.326 11.5842C216.134 10.7345 213.89 9.92366 211.657 9.17473L212.034 8.05248C214.284 8.80748 216.545 9.62432 218.754 10.481L218.326 11.5842ZM114.293 8.84045L113.924 7.71589C116.174 6.97851 118.469 6.28418 120.747 5.65285L121.063 6.79301C118.803 7.41972 116.525 8.10855 114.293 8.84045ZM204.9 7.08079C202.642 6.43732 200.339 5.83806 198.055 5.29976L198.327 4.14804C200.629 4.69038 202.949 5.29426 205.225 5.94237L204.9 7.08079ZM127.921 5.05965L127.657 3.90591C129.964 3.37917 132.313 2.89924 134.641 2.47969L134.851 3.64413C132.541 4.06078 130.21 4.53696 127.921 5.05965ZM191.135 3.83656C188.829 3.40402 186.481 3.01914 184.155 2.69265L184.319 1.5207C186.663 1.8498 189.03 2.23756 191.353 2.67328L191.135 3.83656ZM141.839 2.54876L141.683 1.37566C144.026 1.06303 146.409 0.800089 148.766 0.594947L148.869 1.77382C146.53 1.9778 144.165 2.23843 141.839 2.54876ZM177.13 1.86975C174.798 1.65016 172.424 1.48084 170.074 1.36728L170.132 0.184963C172.499 0.299674 174.891 0.470152 177.241 0.691503L177.13 1.86975ZM155.929 1.3199L155.879 0.137576C158.055 0.0468484 160.273 0.000615202 162.471 3.52859e-05L163.007 0.000905495L163.003 1.18441L162.471 1.18354C160.289 1.18408 158.088 1.23003 155.929 1.31988V1.3199Z" fill="#3F3D56"/>
<path d="M352.951 55.7466V439.32C352.946 443.889 351.128 448.27 347.895 451.499C344.661 454.729 340.278 456.544 335.707 456.546H179.933C177.668 456.55 175.425 456.107 173.332 455.243C171.239 454.379 169.337 453.11 167.735 451.51C166.133 449.91 164.863 448.009 163.997 445.917C163.131 443.826 162.687 441.584 162.689 439.32V55.7466C162.689 53.4828 163.135 51.2412 164.001 49.1498C164.868 47.0583 166.138 45.1579 167.739 43.5572C169.341 41.9565 171.242 40.6868 173.334 39.8206C175.426 38.9544 177.668 38.5087 179.933 38.5089H203.244V41.4972C203.244 45.2614 204.739 48.8716 207.401 51.5338C210.063 54.196 213.674 55.6922 217.44 55.6933H296.667C299.698 55.6998 302.65 54.7285 305.085 52.9239C305.577 52.566 306.044 52.1746 306.482 51.7523C307.869 50.4285 308.972 48.837 309.725 47.0742C310.478 45.3113 310.865 43.414 310.863 41.4972V38.5089H335.707C337.972 38.5082 340.215 38.9536 342.307 39.8196C344.399 40.6856 346.301 41.9553 347.902 43.5561C349.503 45.1569 350.774 47.0575 351.64 49.1492C352.506 51.2409 352.952 53.4827 352.951 55.7466Z" fill="#3F3D56"/>
<path d="M330.177 176.783H185.463V286.849H330.177V176.783Z" fill="#00B049"/>
<path d="M109.259 158.238C122.143 158.515 132.393 167.848 132.393 167.848C132.393 167.848 121.752 176.734 108.868 176.458C95.9834 176.182 85.734 166.848 85.734 166.848C85.734 166.848 96.3744 157.962 109.259 158.238Z" fill="#00B049"/>
<path d="M44.4823 114.272C56.1229 119.801 69.4709 116.052 69.4709 116.052C69.4709 116.052 63.9458 103.34 52.3052 97.8117C40.6647 92.2835 27.3166 96.0323 27.3166 96.0323C27.3166 96.0323 32.8417 108.744 44.4823 114.272Z" fill="#00B049"/>
<path d="M45.6656 108.779C58.4995 107.606 69.7331 115.73 69.7331 115.73C69.7331 115.73 60.1587 125.754 47.3247 126.927C34.4907 128.099 23.2572 119.976 23.2572 119.976C23.2572 119.976 32.8316 109.951 45.6656 108.779Z" fill="#3F3D56"/>
<path d="M92.7109 111C91.4808 123.824 99.5571 135.09 99.5571 135.09C99.5571 135.09 109.628 125.563 110.858 112.739C112.088 99.9153 104.012 88.6496 104.012 88.6496C104.012 88.6496 93.941 98.1758 92.7109 111Z" fill="#3F3D56"/>
<path d="M153.153 189.65C146.421 200.635 148.737 214.301 148.737 214.301C148.737 214.301 161.967 210.154 168.698 199.168C175.43 188.183 173.114 174.517 173.114 174.517C173.114 174.517 159.884 178.664 153.153 189.65Z" fill="#3F3D56"/>
<path d="M133.624 309.094L134.605 308.431C131.147 303.415 129.259 297.484 129.181 291.393C129.208 282.483 133.586 274.241 137.82 266.271C138.606 264.792 139.39 263.317 140.143 261.843C143.306 255.834 145.827 249.508 147.663 242.971C154.231 218.573 147.765 189.788 130.367 165.971C116.565 147.077 95.9905 130.555 67.4686 115.462L66.9148 116.508C95.2743 131.515 115.717 147.923 129.411 166.669C146.599 190.199 152.995 218.608 146.52 242.663C144.705 249.121 142.214 255.369 139.089 261.305C138.338 262.773 137.558 264.242 136.775 265.716C132.473 273.813 128.025 282.186 127.997 291.39C128.075 297.718 130.033 303.881 133.624 309.094Z" fill="#3F3D56"/>
<path d="M11.2475 117.017C17.4592 117.017 22.4947 111.983 22.4947 105.773C22.4947 99.564 17.4592 94.5302 11.2475 94.5302C5.03579 94.5302 0.000228882 99.564 0.000228882 105.773C0.000228882 111.983 5.03579 117.017 11.2475 117.017Z" fill="#3F3D56"/>
<path d="M169.574 288.278L98.9716 282.397V178.883L169.574 175.354V288.278Z" fill="#00B049"/>
<path d="M346.066 288.278L416.668 282.397V178.883L346.066 175.354V288.278Z" fill="#00B049"/>
<path d="M282.361 218.096C280.261 216.282 277.672 215.128 274.918 214.778C272.165 214.428 269.369 214.898 266.882 216.129C264.721 217.173 262.397 217.838 260.011 218.094C259.951 212.927 260.9 207.798 262.804 202.994L263.116 202.189H258.967L258.847 202.624C258.385 204.323 258.021 206.047 257.756 207.787C257.532 207.033 257.242 206.3 256.888 205.596C253.978 199.828 247.253 197.468 246.968 197.371L246.394 197.174L246.211 197.752C246.12 198.039 244.02 204.847 246.931 210.616C249.015 214.747 253.053 217.129 255.284 218.185C252.461 218.003 249.701 217.265 247.164 216.013C245.582 215.198 243.802 214.845 242.029 214.995C240.255 215.145 238.56 215.791 237.137 216.859C229.389 222.745 224.945 231.372 224.945 240.529C224.945 252.558 232.738 263.574 244.799 268.594C245.887 269.045 247.053 269.277 248.231 269.275C249.867 269.275 251.472 268.835 252.879 268.001C254.748 266.914 256.872 266.339 259.034 266.335C261.197 266.331 263.323 266.897 265.197 267.976C266.408 268.691 267.769 269.114 269.173 269.213C270.576 269.311 271.983 269.083 273.283 268.545C285.273 263.506 293.021 252.509 293.021 240.529C293.021 231.954 289.235 223.987 282.361 218.096ZM259.872 203.372H261.396C259.682 207.96 258.809 212.82 258.817 217.717H258.545C258.179 212.895 258.627 208.045 259.872 203.372ZM247.988 210.084C245.778 205.704 246.748 200.484 247.176 198.723C248.847 199.424 253.617 201.742 255.831 206.129C258.04 210.508 257.072 215.727 256.643 217.489C254.971 216.786 250.197 214.462 247.988 210.084ZM272.824 267.454C271.694 267.921 270.471 268.119 269.252 268.033C268.032 267.946 266.849 267.577 265.797 266.956C263.74 265.769 261.406 265.146 259.032 265.151C256.657 265.156 254.326 265.789 252.274 266.984C251.224 267.608 250.043 267.98 248.825 268.07C247.607 268.16 246.384 267.965 245.254 267.502C233.636 262.667 226.129 252.079 226.129 240.529C226.129 231.745 230.402 223.461 237.853 217.802C239.282 216.722 241.026 216.141 242.817 216.145C244.14 216.144 245.444 216.46 246.621 217.065C249.864 218.612 253.408 219.425 257.001 219.446C260.594 219.468 264.147 218.697 267.408 217.188C269.688 216.061 272.249 215.631 274.772 215.952C277.295 216.274 279.666 217.332 281.59 218.994C288.198 224.657 291.837 232.305 291.837 240.529C291.837 252.032 284.374 262.6 272.824 267.454Z" fill="white"/>
<path d="M134.079 206.912V205.523H134.632V201.195C134.634 200.874 134.548 200.558 134.383 200.283C134.218 200.008 133.98 199.783 133.696 199.634C131.253 198.36 128.627 198.361 125.892 199.64C125.59 199.783 125.335 200.01 125.157 200.292C124.978 200.575 124.884 200.902 124.884 201.236V205.523H125.437V206.78C123.404 207.35 121.614 208.571 120.341 210.255C119.069 211.939 118.384 213.994 118.393 216.105V225.47L119.445 225.821L118.393 226.522V229.336L119.445 229.687L118.393 230.388V233.203L119.445 233.553L118.393 234.254V255.689C118.394 257.361 119.06 258.964 120.242 260.146C121.425 261.329 123.028 261.994 124.701 261.996H134.001C135.67 261.994 137.269 261.33 138.449 260.151C139.629 258.971 140.293 257.372 140.295 255.704V234.254L139.243 233.553L140.295 233.203V230.388L139.243 229.687L140.295 229.336V226.522L139.243 225.821L140.295 225.47V215.621C140.288 213.705 139.686 211.838 138.573 210.278C137.46 208.718 135.89 207.542 134.079 206.912ZM126.393 200.712C128.811 199.583 131.021 199.574 133.148 200.683C133.24 200.734 133.316 200.808 133.369 200.898C133.421 200.988 133.449 201.09 133.448 201.195V203.511H126.068V201.236C126.067 201.127 126.097 201.02 126.155 200.927C126.212 200.834 126.295 200.76 126.393 200.712ZM139.111 224.617L136.572 225.463L139.111 227.155V228.483L136.572 229.329L139.111 231.022V232.35L136.572 233.195L139.111 234.888V255.704C139.11 257.058 138.571 258.356 137.613 259.314C136.655 260.272 135.356 260.811 134.001 260.812H124.701C123.342 260.811 122.04 260.27 121.079 259.31C120.118 258.349 119.578 257.047 119.576 255.689V234.888L122.115 233.195L119.576 232.35V231.022L122.115 229.329L119.576 228.483V227.155L122.115 225.463L119.576 224.617V216.105C119.569 214.181 120.217 212.312 121.414 210.805C122.611 209.298 124.286 208.244 126.162 207.816L126.621 207.71V205.523H132.896V207.789L133.322 207.913C134.989 208.404 136.452 209.419 137.495 210.808C138.538 212.197 139.105 213.885 139.111 215.621V224.617Z" fill="white"/>
<path d="M412.338 223.119L409.358 222.523L410.059 221.12L408.692 220.846L408.929 219.425L407.436 219.176V217.828L406.225 217.482L407.375 216.046H405.38L405.797 215.006L404.321 214.76L404.822 213.007H403.226V211.37H402.634C400.769 211.37 399.729 213.584 399.387 214.471C389.092 216.266 359.198 236.965 355.786 239.345C354.369 238.885 352.266 239.963 351.828 240.202L351.133 240.581L352.135 241.583L351.836 242.478L353.676 243.168L353.273 244.174L354.431 245.14L353.391 245.921L354.957 246.86L354.682 248.233L356.431 248.484V249.858L357.447 250.061L356.94 251.835H358.068V253.238H359.169L359.668 254.733L360.18 254.63C361.371 254.392 362.39 252.745 362.789 252.014C372.705 250.246 403.317 228.715 406.297 226.607C409.776 227.024 411.054 226.094 411.191 225.985L411.757 225.532L410.405 224.407L412.338 223.119ZM406.221 225.404L405.99 225.373L405.8 225.508C405.462 225.748 371.89 249.525 362.319 250.892L362.012 250.936L361.873 251.213C361.506 251.961 361.01 252.638 360.409 253.214L360.022 252.055H359.252V250.652H358.509L358.938 249.153L357.615 248.888V247.457L356.089 247.239L356.282 246.274L355.509 245.811L356.339 245.188L354.692 243.816L355.224 242.485L353.321 241.771L353.49 241.263L353.123 240.895C354.012 240.526 355.087 240.251 355.549 240.528L355.879 240.725L356.193 240.505C356.529 240.269 389.874 216.955 399.907 215.588L400.282 215.536L400.393 215.175C400.566 214.616 401.178 213.203 402.042 212.719V214.19H403.253L402.818 215.71L404.15 215.932L403.631 217.23H404.911L404.189 218.132L406.252 218.721V220.179L407.567 220.398L407.336 221.783L408.308 221.976L407.606 223.38L409.303 223.719L408.429 224.301L409.686 225.348C408.544 225.58 407.37 225.599 406.221 225.404Z" fill="white"/>
<path d="M257.82 337.148C267.301 337.148 274.987 329.465 274.987 319.987C274.987 310.51 267.301 302.826 257.82 302.826C248.339 302.826 240.653 310.51 240.653 319.987C240.653 329.465 248.339 337.148 257.82 337.148Z" fill="#00B049"/>
<path d="M268.629 318.292H259.515V309.182H256.125V318.292H247.011V321.682H256.125V330.792H259.515V321.682H268.629V318.292Z" fill="white"/>
<path d="M311.964 320.579L303.084 316.437V318.804H282.366V322.354H303.084V324.721L311.964 320.579Z" fill="white"/>
<path d="M203.677 320.579L212.556 316.437V318.804H233.275V322.354H212.556V324.721L203.677 320.579Z" fill="white"/>
<path d="M474.773 456.682H40.8668V457.865H474.773V456.682Z" fill="#3F3D56"/>
<path d="M314.648 94.53H200.992V95.7135H314.648V94.53Z" fill="white"/>
<path d="M314.923 417.626H201.267V418.81H314.923V417.626Z" fill="white"/>
<path d="M497.543 300.755L494.583 311.999C494.583 311.999 483.928 335.669 494.583 336.852C505.238 338.036 505.83 306.081 505.83 306.081L497.543 300.755Z" fill="#A0616A"/>
<path d="M515.894 219.685L494.583 303.714C494.583 303.714 502.871 306.081 507.014 309.04L515.894 219.685Z" fill="#D0CDE1"/>
<path d="M582.785 283.595L588.705 375.316C588.705 375.316 602.912 411.413 602.32 445.734C602.32 445.734 596.992 459.345 601.136 461.712C605.28 464.079 607.648 465.854 605.28 467.629C602.912 469.405 601.136 473.547 602.912 474.73C604.688 475.914 605.28 477.689 604.688 477.689H586.929C586.929 477.689 590.481 468.813 585.153 466.446C579.825 464.079 582.785 458.161 582.785 458.161L543.124 342.178L511.75 448.693C511.75 448.693 517.078 452.244 512.934 454.019C508.79 455.794 507.014 452.244 508.79 455.794C510.566 459.345 508.198 461.12 508.198 461.712C508.198 462.303 490.44 459.936 490.44 459.936C490.44 459.936 499.319 452.244 495.175 450.468C491.031 448.693 489.256 446.918 490.44 445.734C491.623 444.551 496.359 433.308 496.359 433.308C496.359 433.308 498.727 390.702 499.319 388.926C499.911 387.151 499.319 378.867 499.319 374.724C499.319 370.582 498.727 354.013 500.503 349.871C502.279 345.728 504.055 294.838 513.526 288.92C522.997 283.003 582.785 283.595 582.785 283.595Z" fill="#2F2E41"/>
<path d="M507.606 458.753C507.606 458.753 519.446 483.015 511.158 485.974C502.871 488.932 492.215 486.565 489.848 490.116C487.48 493.666 461.433 497.809 460.841 488.932C460.25 480.056 489.256 463.487 489.256 463.487L493.034 457.405L507.606 458.753Z" fill="#2F2E41"/>
<path d="M603.504 476.505C603.504 476.505 615.343 500.767 607.056 503.726C598.768 506.685 588.113 504.318 585.745 507.868C583.377 511.419 557.331 515.561 556.739 506.685C556.147 497.809 585.153 481.239 585.153 481.239L588.932 475.157L603.504 476.505Z" fill="#2F2E41"/>
<path d="M548.748 172.049C559.536 172.049 568.282 163.307 568.282 152.522C568.282 141.737 559.536 132.994 548.748 132.994C537.959 132.994 529.213 141.737 529.213 152.522C529.213 163.307 537.959 172.049 548.748 172.049Z" fill="#A0616A"/>
<path d="M562.067 162.877L559.699 180.038L541.94 193.648L537.204 187.139V164.652L562.067 162.877Z" fill="#A0616A"/>
<path d="M534.245 184.772C534.245 184.772 552.595 186.547 562.067 180.038L581.009 291.879C581.009 291.879 514.118 297.205 511.158 293.654V258.741L522.997 201.933L534.245 184.772Z" fill="#3F3D56"/>
<path d="M560.437 174.691L566.802 180.038C566.802 180.038 592.849 184.18 591.073 191.281L583.969 275.31L586.337 303.714C586.337 303.714 566.21 298.388 550.819 303.714C535.428 309.04 547.656 189.267 547.656 189.267C547.656 189.267 561.766 176.445 560.437 174.691Z" fill="#D0CDE1"/>
<path d="M537.204 181.168C537.204 181.168 518.262 194.832 515.894 203.708C513.526 212.584 505.83 306.081 505.83 306.081C505.83 306.081 509.382 304.306 511.158 307.265C512.934 310.223 540.164 185.848 537.204 181.168Z" fill="#D0CDE1"/>
<path d="M589.297 304.898L585.053 318.74C585.053 318.74 583.969 344.545 569.762 340.994C555.555 337.444 573.906 307.265 573.906 307.265L578.05 300.755L589.297 304.898Z" fill="#A0616A"/>
<path d="M529.222 151.671C529.222 151.671 527.107 148.5 527.921 145.085C528.407 143.146 528.599 141.145 528.49 139.149C528.49 139.149 530.198 133.62 531.906 130.531C533.614 127.441 532.801 126.14 538.169 125.164C543.537 124.189 541.341 117.196 555.494 124.758C555.971 125.424 556.636 125.934 557.403 126.224C558.17 126.513 559.006 126.569 559.805 126.384C562.733 125.815 563.79 129.88 563.79 129.88C563.79 129.88 565.742 128.742 566.474 130.368C567.206 131.994 572.426 129.392 572.426 140.369C572.426 151.345 566.486 161.15 566.486 161.15C566.486 161.15 566.922 142.686 557.243 140.816C547.564 138.946 537.153 133.499 534.631 140.491C533.27 144.416 531.455 148.168 529.222 151.671Z" fill="#2F2E41"/>
<path d="M566.698 156.061C567.753 156.061 568.608 154.922 568.608 153.516C568.608 152.111 567.753 150.972 566.698 150.972C565.644 150.972 564.789 152.111 564.789 153.516C564.789 154.922 565.644 156.061 566.698 156.061Z" fill="#A0616A"/>
<path d="M586.337 187.139C586.337 187.139 595.808 184.772 598.768 200.749C601.728 216.727 605.28 262.291 605.28 262.291L591.073 310.223C591.073 310.223 576.866 302.531 573.906 303.714L585.086 262.102L575.682 219.685C575.682 219.685 583.969 187.139 586.337 187.139Z" fill="#D0CDE1"/>
<path opacity="0.15" d="M572.566 220.495L584.997 261.917L572.566 303.932L579.669 261.917L572.566 220.495Z" fill="black"/>
</svg>
