<svg width="147" height="31" viewBox="0 0 147 31" fill="none" xmlns="http://www.w3.org/2000/svg">
<path d="M13.0381 9.60769C15.5077 9.60769 17.4882 10.3425 18.9797 11.8121C20.4958 13.2818 21.2537 15.4985 21.2537 18.4622V29.8518H14.2851V19.6012C14.2851 16.8824 13.1971 15.523 11.0208 15.523C9.82274 15.523 8.85691 15.9148 8.12337 16.6987C7.41428 17.4825 7.05974 18.6582 7.05974 20.2258V29.8518H0.0911255V9.93836H6.72965V12.1061C7.51209 11.2978 8.44123 10.6854 9.51709 10.269C10.593 9.82814 11.7667 9.60769 13.0381 9.60769ZM44.7009 9.93836V29.8518H38.0624V27.7209C37.3289 28.5292 36.4486 29.1415 35.4217 29.5579C34.3947 29.9743 33.3065 30.1825 32.1573 30.1825C29.5899 30.1825 27.5361 29.4232 25.9956 27.9046C24.4797 26.3859 23.7216 24.108 23.7216 21.0708V9.93836H30.6903V19.9318C30.6903 21.4259 30.9715 22.516 31.5339 23.2018C32.0962 23.8876 32.9154 24.2305 33.9913 24.2305C35.0915 24.2305 35.984 23.8508 36.6687 23.0915C37.3777 22.3077 37.7323 21.1198 37.7323 19.5277V9.93836H44.7009ZM61.0728 29.0435C60.486 29.411 59.7647 29.6926 58.9089 29.8886C58.0776 30.0846 57.1851 30.1825 56.2315 30.1825C53.6397 30.1825 51.6468 29.5456 50.2531 28.272C48.8594 26.9984 48.1625 25.1 48.1625 22.5772V15.8904H45.2651V10.6732H48.1625V5.49273H55.1311V10.6732H59.6791V15.8904H55.1311V22.5037C55.1311 23.2141 55.3145 23.7773 55.6813 24.1938C56.0725 24.5856 56.586 24.7816 57.2217 24.7816C58.0286 24.7816 58.7378 24.5735 59.349 24.157L61.0728 29.0435ZM68.5646 12.3265C69.2738 11.4202 70.1907 10.7467 71.3154 10.3058C72.4647 9.84039 73.7728 9.60769 75.2398 9.60769V15.8904C74.6041 15.8169 74.0784 15.7801 73.6627 15.7801C72.1712 15.7801 70.9976 16.1843 70.1418 16.9926C69.3104 17.8009 68.8947 19.0378 68.8947 20.7034V29.8518H61.9261V9.93836H68.5646V12.3265ZM76.2817 9.93836H83.2503V29.8518H76.2817V9.93836ZM79.766 7.73392C78.4946 7.73392 77.4676 7.37875 76.6851 6.66844C75.9027 5.95811 75.5115 5.07633 75.5115 4.0231C75.5115 2.96987 75.9027 2.08809 76.6851 1.37777C77.4676 0.667448 78.4946 0.312286 79.766 0.312286C81.0374 0.312286 82.0644 0.6552 82.8469 1.34103C83.6293 2.00236 84.0205 2.85965 84.0205 3.91288C84.0205 5.0151 83.6293 5.93362 82.8469 6.66844C82.0644 7.37875 81.0374 7.73392 79.766 7.73392ZM85.9453 2.59021H92.9139V29.8518H85.9453V2.59021ZM95.6087 9.93836H102.577V29.8518H95.6087V9.93836ZM99.093 7.73392C97.8216 7.73392 96.7946 7.37875 96.0122 6.66844C95.2297 5.95811 94.8385 5.07633 94.8385 4.0231C94.8385 2.96987 95.2297 2.08809 96.0122 1.37777C96.7946 0.667448 97.8216 0.312286 99.093 0.312286C100.364 0.312286 101.391 0.6552 102.174 1.34103C102.956 2.00236 103.348 2.85965 103.348 3.91288C103.348 5.0151 102.956 5.93362 102.174 6.66844C101.391 7.37875 100.364 7.73392 99.093 7.73392ZM112.864 10.6732H117.596V15.8904H113.048V29.8518H106.079V15.8904H103.182V10.6732H106.079V10.1588C106.079 7.73392 106.8 5.81115 108.243 4.39051C109.71 2.96987 111.752 2.25955 114.368 2.25955C115.249 2.25955 116.104 2.34528 116.936 2.51673C117.767 2.68818 118.451 2.94537 118.99 3.28829L117.266 8.21155C116.58 7.81965 115.884 7.62369 115.175 7.62369C114.442 7.62369 113.866 7.84414 113.451 8.28503C113.06 8.72592 112.864 9.375 112.864 10.2323V10.6732ZM138.442 19.9318C138.442 19.9809 138.406 20.5564 138.332 21.6587H123.881C124.175 22.6874 124.738 23.4834 125.569 24.0468C126.425 24.5856 127.488 24.8551 128.759 24.8551C129.713 24.8551 130.533 24.7204 131.217 24.451C131.926 24.1815 132.636 23.7406 133.344 23.1283L137.012 26.9493C135.081 29.1047 132.256 30.1825 128.539 30.1825C126.217 30.1825 124.175 29.7416 122.414 28.8598C120.654 27.9781 119.285 26.7533 118.307 25.1858C117.353 23.6182 116.876 21.8424 116.876 19.8584C116.876 17.8988 117.342 16.1475 118.27 14.6044C119.223 13.0369 120.532 11.8121 122.194 10.9304C123.857 10.0486 125.728 9.60769 127.806 9.60769C129.786 9.60769 131.584 10.0241 133.197 10.8569C134.811 11.6652 136.083 12.8532 137.012 14.4207C137.965 15.9638 138.442 17.8009 138.442 19.9318ZM127.843 14.5677C126.767 14.5677 125.862 14.8739 125.128 15.4862C124.42 16.0985 123.967 16.9314 123.771 17.9846H131.914C131.719 16.9314 131.254 16.0985 130.52 15.4862C129.812 14.8739 128.919 14.5677 127.843 14.5677ZM142.755 30.1825C141.582 30.1825 140.591 29.7906 139.784 29.0068C138.977 28.223 138.574 27.231 138.574 26.0308C138.574 24.8061 138.966 23.8141 139.748 23.0548C140.555 22.2955 141.557 21.9158 142.755 21.9158C143.978 21.9158 144.981 22.2955 145.763 23.0548C146.546 23.8141 146.936 24.8061 146.936 26.0308C146.936 27.231 146.533 28.223 145.726 29.0068C144.944 29.7906 143.954 30.1825 142.755 30.1825Z" fill="#00B049"/>
</svg>
